<svg id="Layer_1" data-name="Layer 1" xmlns="http://www.w3.org/2000/svg" viewBox="0 0 146.33 182.38"><defs><style>.cls-1{fill:#231f20;}</style></defs><path class="cls-1" d="M80.77,101.47q3-42.33,3-65.15l0-6.8q9.23.11,12.35.1c.94,0,4.73,0,11.33-.1Q106.48,41.37,105.9,52q-.74,14.76-1.06,27.6t-.31,21.9l-10.81-.1Q90.57,101.37,80.77,101.47Z"/><path class="cls-1" d="M101.27,175c-.13-.14-.28-.26-.42-.4s-.31-.4-.48-.58l-.12-.13h0a63.49,63.49,0,0,1-4.91-6,115.57,115.57,0,0,1-9.09-15.41,183.28,183.28,0,0,1-7.37-16.85c-.72-1.87-1.28-3.83-1.95-5.72,1.85-.33,3.7-.53,5.54-.89,2.27-.46,4.53-1,6.8-1.51,7.25,3.64,14.59,7.06,22.06,10q4.56,1.77,9.17,3.32l25.83,5.81-20-7.9c-4.47-1.61-8.92-3.36-13.33-5.32-5.34-2.37-10.62-5-15.83-7.79l4-1.07c8.66-2.39,17.12-5.35,25.43-8.56,0,0,0,.08,0,.11l1.46-.55s0-.09,0-.14c3.08-1.21,6.21-2.32,9.21-3.64s6-2.89,8.94-4.38a50.43,50.43,0,0,1-5.39-2c-1.74.78-3.44,1.59-5.24,2.28-2.66,1-5.44,1.85-8.15,2.78l-1.68.57c-8.55,2.86-17.25,5.45-26.09,7.51l-4.63,1-4.59,1-1.64.31c-3-1.71-6-3.35-8.86-5.15l-4-2.54L72,110.52l-1.38-.94c-.88-3.31-1.85-6.58-2.63-9.91L67,95l-1-4.59-.87-4.62-.81-4.62c-.41-2.45-.62-4.88-1-7.33,2.24-.84,4.48-1.68,6.44-2.36s3.89-1.31,5.56-1.84c.06-1.17.11-2.32.17-3.46-2,.55-4.24,1.16-6.81,1.93-1.82.54-3.81,1.15-5.88,1.8-.3-2.39-.73-4.8-1-7.19Q61.3,55.82,61.09,49c4.51,1.39,8.8,2.87,12.72,4.37.8.31,1.5.61,2.25.92.06-1.65.12-3.29.16-4.84l-.64-.31c-4.42-2-9.32-4-14.59-5.92,0-2.52.07-5,.21-7.52.2-2.91.48-5.79.89-8.6A62.08,62.08,0,0,1,63.8,19a28.52,28.52,0,0,1,3-7,13,13,0,0,1,1-1.38l.5-.63.54-.52L69,9.23c.09-.08.19-.14.28-.21l.55-.42.57-.31.28-.16L71,8l.29-.11.14,0,.06,0,.86-.15a1.7,1.7,0,0,1,.64,0h.22a.73.73,0,0,1,.26,0,7.79,7.79,0,0,1,1.39.24c.23.06.47.1.71.17l.74.28A21.33,21.33,0,0,1,82.1,12a49,49,0,0,1,5.15,5.14,64.37,64.37,0,0,1,4,5.1l4.82,0,2.89,0a89.23,89.23,0,0,0-6.45-9.52,52.5,52.5,0,0,0-5.69-6.15,28.36,28.36,0,0,0-7.66-5.17L78,.91c-.41-.14-.84-.26-1.26-.38A15.31,15.31,0,0,0,74.08,0a4.66,4.66,0,0,0-.77,0h-.83a8.37,8.37,0,0,0-1.43.11L70,.28a3.92,3.92,0,0,0-.44.09L69.4.43l-.35.11-.7.23-.7.24c-.22.1-.44.22-.65.33-.44.22-.87.44-1.3.68a17.37,17.37,0,0,0-2.23,1.72l-1,1-.86,1a20.14,20.14,0,0,0-1.54,2.1,34.74,34.74,0,0,0-3.91,8.93,70.32,70.32,0,0,0-2,9.21,109.21,109.21,0,0,0-1,14.7c-.79-.24-1.55-.5-2.36-.74a98.46,98.46,0,0,0-15.06-3.1,51.12,51.12,0,0,0-8.37-.32,28.42,28.42,0,0,0-9.06,1.76l-1.17.48c-.39.19-.78.42-1.16.63a16.14,16.14,0,0,0-2.25,1.55,4.28,4.28,0,0,0-.57.51l-.57.59a8.77,8.77,0,0,0-.94,1.09l-.62.85c.13-.19-.25.37-.24.37l-.09.17-.17.32-.33.66-.32.67c-.09.23-.16.46-.24.69-.15.46-.3.93-.43,1.4A16.92,16.92,0,0,0,8.9,51l0,1.38L9,53.71a18,18,0,0,0,.4,2.58,34.49,34.49,0,0,0,3.55,9.08A70.67,70.67,0,0,0,18,73.28a109.78,109.78,0,0,0,9.72,11.08c-.73.39-1.45.74-2.19,1.15A97,97,0,0,0,12.71,94a52.5,52.5,0,0,0-6.15,5.69,28.36,28.36,0,0,0-5.17,7.66l-.48,1.17c-.14.41-.26.84-.38,1.26A15.31,15.31,0,0,0,0,112.42a4.66,4.66,0,0,0,0,.77V114a9.79,9.79,0,0,0,.1,1.43l.17,1a3.92,3.92,0,0,0,.09.44l.06.18.11.35.23.7.24.7c.1.22.22.44.33.65.22.44.44.88.68,1.3A17.37,17.37,0,0,0,3.74,123l1,1,1,.86a20.14,20.14,0,0,0,2.1,1.54,34.74,34.74,0,0,0,8.93,3.91,70.32,70.32,0,0,0,9.21,2,117.93,117.93,0,0,0,18.71,1A177.27,177.27,0,0,0,63.56,132c2.87-.35,5.73-.93,8.6-1.38.9,2.2,1.68,4.47,2.63,6.64,2.55,5.77,5.29,11.42,8.34,16.82a120.28,120.28,0,0,0,10.09,15.35,70,70,0,0,0,6,6.73,32.42,32.42,0,0,0,7.14,5.4c.58.27,1.15.56,1.74.8ZM56.58,76.61c.34,2,.55,3.91.94,5.86.63,3.14,1.35,6.27,2.09,9.4l1.17,4.7L62,101.19c.28,1,.64,2,.92,2.93-4.59-3.31-9.11-6.7-13.4-10.27q-5.36-4.48-10.33-9.17c4.19-2.21,8.27-4.17,12.1-5.88C53.16,78,54.82,77.33,56.58,76.61Zm-32.14-8.1a61.67,61.67,0,0,1-4.51-6.94,27.9,27.9,0,0,1-2.84-7,11.28,11.28,0,0,1-.3-1.65l-.09-.8V51a1.86,1.86,0,0,1,.05-.34l.09-.69.18-.62.09-.32.14-.27.13-.28.06-.15,0,0,.5-.72a1.5,1.5,0,0,1,.43-.48l.15-.16a.84.84,0,0,1,.19-.18,8.31,8.31,0,0,1,1.14-.82c.22-.12.42-.25.64-.38l.71-.32a21.38,21.38,0,0,1,6.67-1.52,52,52,0,0,1,7.28,0,95,95,0,0,1,14.17,2.16c1.37.31,2.57.72,3.9,1.06.16,5.55.54,11.12,1.23,16.69.35,2.9.94,5.8,1.4,8.71-2,.71-4.12,1.46-6.32,2.29-4.53,1.71-9.42,3.74-14.5,6.13-1.77-1.8-3.51-3.62-5.17-5.47C28,73,26.14,70.78,24.44,68.51Zm38.32,56.08c-6.13.54-12.21,1-18.19,1-3,0-6-.08-8.87-.25s-5.79-.48-8.6-.89A62.43,62.43,0,0,1,19,122.7a28.52,28.52,0,0,1-7-3,13,13,0,0,1-1.38-1l-.63-.5-.52-.54-.27-.26c-.08-.09-.14-.19-.21-.28l-.42-.55-.31-.57-.16-.28-.1-.3-.1-.29-.06-.14,0-.06-.16-.86a1.7,1.7,0,0,1,0-.64,1.62,1.62,0,0,0,0-.22.73.73,0,0,1,0-.26,8,8,0,0,1,.24-1.39c.06-.23.1-.47.17-.71l.28-.74A21.33,21.33,0,0,1,12,104.4a49,49,0,0,1,5.14-5.15,92.51,92.51,0,0,1,11.55-8.5c1.17-.74,2.33-1.41,3.49-2.1,4.05,3.83,8.24,7.55,12.68,11,5,3.92,10.2,7.66,15.52,11.22,1.93,1.29,3.91,2.51,5.87,3.74,1,3.06,2.07,6.07,3.19,9.08C67.2,124,65,124.38,62.76,124.59ZM74.6,123c-.45-1.39-1-2.74-1.41-4.14L76.78,121c.89.5,1.82.92,2.72,1.42C77.86,122.64,76.24,122.79,74.6,123Z"/></svg>